<?xml version="1.0" standalone="no"?><!DOCTYPE svg PUBLIC "-//W3C//DTD SVG 1.1//EN" "http://www.w3.org/Graphics/SVG/1.1/DTD/svg11.dtd"><svg t="1599603372153" class="icon" viewBox="0 0 1024 1024" version="1.1" xmlns="http://www.w3.org/2000/svg" p-id="26581" xmlns:xlink="http://www.w3.org/1999/xlink" width="200" height="200"><defs><style type="text/css"></style></defs><path d="M753.528 64H277.082C211.332 64 192 113.596 192 144.828v759.28c0 35.182 18.85 48.234 29.436 52.534 10.598 4.31 39.832 7.942 57.346-12.336 0 0 224.938-261.79 228.8-265.668 5.842-5.86 5.842-5.86 11.688-5.86h145.534c61.148 0 70.98-43.738 77.368-69.504 5.318-21.578 64.978-327.924 84.904-425.118C842.286 103.986 823.49 64 753.528 64z m-11.356 539.274c5.318-21.578 64.978-327.924 84.904-425.118m-101.692 15.184l-19.998 103.468c-2.39 11.3-16.574 23.19-29.726 23.19h-191.834C462.946 320 448 332.276 448 353.204v26.896c0 20.946 15.038 35.788 35.93 35.788h163.696c14.748 0 29.22 16.218 26.032 32.01-3.204 15.816-18.172 93.138-19.968 101.78-1.804 8.656-11.69 23.45-29.222 23.45h-128.538c-23.41 0-30.488 3.066-46.148 22.586-15.674 19.54-156.512 189.184-156.512 189.184-1.426 1.644-2.82 1.168-2.82-0.624V191.792c0-13.368 11.586-29.046 28.958-29.046h382.346c14.07-0.002 27.222 13.262 23.63 30.594z" p-id="26582"></path></svg>