<?xml version="1.0" standalone="no"?><!DOCTYPE svg PUBLIC "-//W3C//DTD SVG 1.1//EN" "http://www.w3.org/Graphics/SVG/1.1/DTD/svg11.dtd"><svg t="1599600317267" class="icon" viewBox="0 0 1024 1024" version="1.1" xmlns="http://www.w3.org/2000/svg" p-id="11483" xmlns:xlink="http://www.w3.org/1999/xlink" width="200" height="200"><defs><style type="text/css"></style></defs><path d="M512.070983 1023.999903A512.048404 512.048404 0 0 1 307.309765 42.638399 27.521148 27.521148 0 0 1 329.598019 93.029233a457.103013 457.103013 0 1 0 365.624267 0A27.521148 27.521148 0 0 1 717.219823 42.638399a512.048404 512.048404 0 0 1-205.14884 981.361504z" p-id="11484"></path><path d="M512.070983 539.569552A27.424243 27.424243 0 0 1 484.646741 512.14531v-484.527256a27.521148 27.521148 0 0 1 54.94539 0v484.527256a27.521148 27.521148 0 0 1-27.521148 27.424242z" p-id="11485"></path></svg>